<?xml version="1.0"?><svg xmlns="http://www.w3.org/2000/svg" xmlns:xlink="http://www.w3.org/1999/xlink" id="Layer_1" data-name="Layer 1" viewBox="0 0 864 317.972">
  <g id="type">
    <a xlink:href="74.9019607843137">
      <path id="type_PathItem_" data-name="type &amp;lt;PathItem&amp;gt;" d="M287.092,255.0757h-52.2607l-2.5434-4.0999c-3.3841-5.5071-6.7915-11.1381-10.2994-16.893l-4.0004-6.6189c-.395-.6661-.7656-1.259-1.1362-1.852-.4203-.6914-.8397-1.3829-1.2346-2.0499-32.1817-53.0253-72.2657-119.067-106.8669-161.7194-11.6322-14.3987-26.5001-20.2273-39.8121-15.6089-14.4481,5.0137-23.6355,21.561-24.006,43.2207-.5186,32.897-.3952,65.9174-.2716,97.8513v2.915c0,4.8654.0247,9.7055.0493,14.5222v50.0616H.1804v-35.6389c0-9.5329-.0247-19.1155-.0741-28.7479-.1235-33.0204-.247-67.1525.2964-101.6795C1.0201,50.2843,19.3209,19.363,48.5382,6.3968v-.2964l5.8286-2.0499c31.2671-10.8422,65.3745.5186,88.9848,29.637,36.5029,45.0236,76.9331,111.6571,112.6207,170.4372l2.5688,4.2237c1.26,2.0997,2.519,4.174,3.779,6.2483l3.0125,4.9396c4.6685,7.7053,9.2131,15.1639,13.6338,22.3757l8.1256,13.1637Z" style="fill: #fff;"></path>
    </a>
    <a xlink:href="74.9019607843137">
      <path id="type_PathItem_-2" data-name="type &amp;lt;PathItem&amp;gt;" d="M639.7221,211.2625l29.6119,43.3198-22.4986.5432c-2.8896.0741-5.5325.1482-8.0272.2224l-5.038.1482c-7.3103.197-13.0896.3452-19.3135.3452-7.5824,0-14.448-.2467-22.2031-.864-41.937-3.1861-71.7712-39.5408-72.5865-88.3921-.5432-34.5027-.4193-68.6349-.2965-101.6308.0741-14.127.1238-28.1551.1238-42.1092V.568h44.7768v22.2772c0,8.002-.0244,16.0286-.0498,24.08-.0244,6.0509-.0487,12.1265-.0741,18.2021-.1726,33.9344-.2711,67.1521.2721,100.7654.4935,29.2667,16.0289,43.5178,31.2171,44.6539,7.6068.5919,13.8552.8143,21.6356.7158h22.4498Z" style="fill: #fff;"></path>
    </a>
    <path id="type_CompoundPathItem_" data-name="type &amp;lt;CompoundPathItem&amp;gt;" d="M377.5086,0c-70.165,0-127.2658,57.1995-127.2658,127.5379,0,37.0959,16.1518,72.3144,44.3565,96.6172,16.5223,14.2744,36.5029,24.0794,57.7181,28.3519,8.1013,1.655,16.5721,2.4703,25.1912,2.4703s16.8686-.8153,25.2166-2.4703c21.2649-4.2968,41.2201-14.0775,57.7425-28.3275,28.2047-24.3272,44.3575-59.5457,44.3575-96.6416C504.8251,57.1995,447.7243,0,377.5086,0ZM377.5086,43.7393c46.1109,0,83.6505,37.5896,83.6505,83.7985,0,38.6767-27.2899,73.0302-64.9046,81.6503h-.0244c-11.7321,2.7414-25.0186,2.8155-37.4908,0-37.6147-8.6445-64.9056-42.999-64.9056-81.6503,0-46.2089,37.5406-83.7985,83.6749-83.7985Z" style="fill: #fff;"></path>
    <path id="type_CompoundPathItem_-2" data-name="type &amp;lt;CompoundPathItem&amp;gt;" d="M864,56.8784c0-30.4274-24.7709-55.199-55.2235-55.199h-92.2696c-30.4526,0-55.2235,24.7716-55.2235,55.199v36.1324c0,12.9168,4.4705,24.8205,11.9534,34.2305-7.4829,9.41-11.9534,21.2893-11.9534,34.2063v36.1577c0,30.4272,24.7709,55.1981,55.2235,55.1981h92.2696c30.4526,0,55.2235-24.7709,55.2235-55.1981v-36.1577c0-12.917-4.4695-24.7962-11.9534-34.2063,7.4839-9.41,11.9534-21.3137,11.9534-34.2305v-36.1324ZM822.0143,197.6297c0,7.286-5.9274,13.2134-13.2378,13.2134h-92.2696c-7.3103,0-13.2378-5.9275-13.2378-13.2134v-36.1577c0-7.285,5.9274-13.2124,13.2378-13.2124h92.2696c7.3103,0,13.2378,5.9275,13.2378,13.2124v36.1577ZM822.0143,93.0109c0,7.3104-5.9274,13.2377-13.2378,13.2377h-92.2696c-7.3103,0-13.2378-5.9273-13.2378-13.2377v-36.1324c0-7.2859,5.9274-13.2132,13.2378-13.2132h92.2696c7.3103,0,13.2378,5.9274,13.2378,13.2132v36.1324Z" style="fill: #33B046;"></path>
  </g>
  <g id="tagline">
    <path id="tagline_CompoundPathItem_" data-name="tagline &amp;lt;CompoundPathItem&amp;gt;" d="M840.1957,317.972v-32.992h20.9187v5.898h-14.6988v21.1959h14.6988v5.898h-20.9187ZM843.6509,304.4256v-5.898h15.9893v5.898h-15.9893Z" style="fill: #fff;"></path>
    <a xlink:href="74.9019607843137">
      <path id="tagline_PathItem_" data-name="tagline &amp;lt;PathItem&amp;gt;" d="M806.0423,317.972v-32.992h7.2342l13.2703,22.1178h.3685l-.3685-6.359v-15.7589h6.1742v32.992h-6.5428l-14.0074-23.3616h-.3686l.3686,6.359v17.0026h-6.1285Z" style="fill: #fff;"></path>
    </a>
    <path id="tagline_CompoundPathItem_-2" data-name="tagline &amp;lt;CompoundPathItem&amp;gt;" d="M769.7485,317.972l12.3484-32.992h7.1418l12.395,32.992h-6.8656l-7.6941-21.8873-1.1981-3.9618h-.3686l-1.1981,3.9618-7.6951,21.8873h-6.8656ZM785.3225,310.0921v-5.7132h7.6952l2.0276,5.7132h-9.7228ZM776.3369,310.0921l1.9819-5.7132h7.0037v5.7132h-8.9856Z" style="fill: #fff;"></path>
    <a xlink:href="74.9019607843137">
      <path id="tagline_PathItem_-2" data-name="tagline &amp;lt;PathItem&amp;gt;" d="M746.6905,317.972v-32.992h6.2199v27.0939h13.9617v5.898h-20.1815Z" style="fill: #fff;"></path>
    </a>
    <a xlink:href="74.9019607843137">
      <path id="tagline_PathItem_-3" data-name="tagline &amp;lt;PathItem&amp;gt;" d="M718.6584,317.972v-32.992h11.6112c2.119,0,4.0237.4458,5.7132,1.3362,1.6895.861,3.0256,2.0743,4.0085,3.6409,1.0143,1.5666,1.5209,3.379,1.5209,5.4371s-.5066,3.8856-1.5209,5.4827c-.9829,1.5666-2.319,2.7952-4.0085,3.6867-1.6895.86-3.5942,1.2895-5.7132,1.2895h-8.1561v-5.898h8.3399c1.0752,0,1.9819-.2142,2.719-.6447.7371-.4295,1.2905-.9828,1.6591-1.659.3685-.7066.5523-1.459.5523-2.2571,0-.7991-.1837-1.5362-.5523-2.2124-.3686-.6752-.9219-1.2285-1.6591-1.658-.7371-.4305-1.6438-.6457-2.719-.6457h-5.5752v27.0939h-6.2199Z" style="fill: #fff;"></path>
    </a>
    <path id="tagline_CompoundPathItem_-3" data-name="tagline &amp;lt;CompoundPathItem&amp;gt;" d="M671.5636,317.972l12.3484-32.992h7.1418l12.395,32.992h-6.8656l-7.6951-21.8873-1.1981-3.9618h-.3685l-1.1981,3.9618-7.6941,21.8873h-6.8656ZM687.1377,310.0921v-5.7132h7.6951l2.0266,5.7132h-9.7217ZM678.1521,310.0921l1.9819-5.7132h7.0037v5.7132h-8.9857Z" style="fill: #fff;"></path>
    <path id="tagline_CompoundPathItem_-4" data-name="tagline &amp;lt;CompoundPathItem&amp;gt;" d="M657.4334,317.972v-29.8586h6.2209v29.8586h-6.2209ZM648.2183,290.8781v-5.898h24.651v5.898h-24.651Z" style="fill: #fff;"></path>
    <path id="tagline_CompoundPathItem_-5" data-name="tagline &amp;lt;CompoundPathItem&amp;gt;" d="M617.6571,317.972l12.3484-32.992h7.1428l12.3941,32.992h-6.8656l-7.6941-21.8873-1.1981-3.9618h-.3685l-1.1981,3.9618-7.6952,21.8873h-6.8656ZM633.2311,310.0921v-5.7132h7.6951l2.0276,5.7132h-9.7227ZM624.2465,310.0921l1.9809-5.7132h7.0037v5.7132h-8.9846Z" style="fill: #fff;"></path>
    <path id="tagline_CompoundPathItem_-6" data-name="tagline &amp;lt;CompoundPathItem&amp;gt;" d="M588.165,317.972v-32.992h11.1513c3.5018,0,6.5123.7067,9.0303,2.12,2.5505,1.3818,4.501,3.3171,5.8524,5.8056,1.3818,2.4571,2.0733,5.3142,2.0733,8.5704s-.6915,6.1285-2.0733,8.616c-1.3514,2.4886-3.3018,4.4238-5.8524,5.8067-2.518,1.3818-5.5284,2.0733-9.0303,2.0733h-11.1513ZM594.3858,312.074h4.6532c2.4266,0,4.4543-.4305,6.0828-1.2905,1.6275-.8904,2.8408-2.1342,3.6399-3.7323.8295-1.5971,1.2438-3.4551,1.2438-5.5751,0-2.1504-.4143-4.0085-1.2438-5.5751-.799-1.5971-2.0124-2.8267-3.6399-3.6867-1.6286-.8904-3.6562-1.3361-6.0828-1.3361h-4.6532v21.1959Z" style="fill: #fff;"></path>
    <a xlink:href="74.9019607843137">
      <path id="tagline_PathItem_-4" data-name="tagline &amp;lt;PathItem&amp;gt;" d="M563.6865,317.972v-32.992h6.2199v32.992h-6.2199Z" style="fill: #fff;"></path>
    </a>
    <path id="tagline_CompoundPathItem_-7" data-name="tagline &amp;lt;CompoundPathItem&amp;gt;" d="M527.3917,317.972l12.3484-32.992h7.1418l12.3951,32.992h-6.8656l-7.6951-21.8873-1.1981-3.9618h-.3685l-1.1981,3.9618-7.6941,21.8873h-6.8656ZM542.9658,310.0921v-5.7132h7.6951l2.0266,5.7132h-9.7217ZM533.9802,310.0921l1.9819-5.7132h7.0037v5.7132h-8.9856Z" style="fill: #fff;"></path>
    <path id="tagline_CompoundPathItem_-8" data-name="tagline &amp;lt;CompoundPathItem&amp;gt;" d="M492.6352,317.972v-32.992h20.9197v5.898h-14.6988v21.1959h14.6988v5.898h-20.9197ZM496.0913,304.4256v-5.898h15.9883v5.898h-15.9883Z" style="fill: #fff;"></path>
    <path id="tagline_CompoundPathItem_-9" data-name="tagline &amp;lt;CompoundPathItem&amp;gt;" d="M458.8421,317.972v-32.992h6.2209v32.992h-6.2209ZM462.2983,304.056v-5.897h19.3977v5.897h-19.3977ZM478.9323,317.972v-32.992h6.2199v32.992h-6.2199Z" style="fill: #fff;"></path>
    <path id="tagline_CompoundPathItem_-10" data-name="tagline &amp;lt;CompoundPathItem&amp;gt;" d="M438.6544,317.972v-29.8586h6.2209v29.8586h-6.2209ZM429.4394,290.8781v-5.898h24.651v5.898h-24.651Z" style="fill: #fff;"></path>
  </g>
</svg>