<?xml version="1.0"?>
<svg id="Layer_1" data-name="Layer 1" xmlns="http://www.w3.org/2000/svg" xmlns:xlink="http://www.w3.org/1999/xlink" viewBox="0 0 864 255.8413">
  <g id="type">
    <a xlink:href="74.9019607843137">
      <path id="type_PathItem_" data-name="type &amp;lt;PathItem&amp;gt;" d="M287.092,255.0757h-52.2607l-2.5434-4.0999c-3.3841-5.5071-6.7915-11.1381-10.2994-16.893l-4.0004-6.6189c-.395-.6661-.7656-1.259-1.1362-1.852-.4203-.6914-.8397-1.3829-1.2346-2.0499-32.1817-53.0253-72.2657-119.067-106.8669-161.7194-11.6322-14.3987-26.5001-20.2273-39.8121-15.6089-14.4481,5.0137-23.6355,21.561-24.006,43.2207-.5186,32.897-.3952,65.9174-.2716,97.8513v2.915c0,4.8654.0247,9.7055.0493,14.5222v50.0616H.1804v-35.6389c0-9.5329-.0247-19.1155-.0741-28.7479-.1235-33.0204-.247-67.1525.2964-101.6795C1.0201,50.2843,19.3209,19.363,48.5382,6.3968v-.2964l5.8286-2.0499c31.2671-10.8422,65.3745.5186,88.9848,29.637,36.5029,45.0236,76.9331,111.6571,112.6207,170.4372l2.5688,4.2237c1.26,2.0997,2.519,4.174,3.779,6.2483l3.0125,4.9396c4.6685,7.7053,9.2131,15.1639,13.6338,22.3757l8.1256,13.1637Z" style="fill: #404040;"></path>
    </a>
    <a xlink:href="74.9019607843137">
      <path id="type_PathItem_-2" data-name="type &amp;lt;PathItem&amp;gt;" d="M639.7221,211.2625l29.6119,43.3198-22.4986.5432c-2.8896.0741-5.5325.1482-8.0272.2224l-5.038.1482c-7.3103.197-13.0896.3452-19.3135.3452-7.5824,0-14.448-.2467-22.2031-.864-41.937-3.1861-71.7712-39.5408-72.5865-88.3921-.5432-34.5027-.4193-68.6349-.2965-101.6308.0741-14.127.1238-28.1551.1238-42.1092V.568h44.7768v22.2772c0,8.002-.0244,16.0286-.0498,24.08-.0244,6.0509-.0487,12.1265-.0741,18.2021-.1726,33.9344-.2711,67.1521.2721,100.7654.4935,29.2667,16.0289,43.5178,31.2171,44.6539,7.6068.5919,13.8552.8143,21.6356.7158h22.4498Z" style="fill: #404040;"></path>
    </a>
    <path id="type_CompoundPathItem_" data-name="type &amp;lt;CompoundPathItem&amp;gt;" d="M377.5086,0c-70.165,0-127.2658,57.1995-127.2658,127.5379,0,37.0959,16.1518,72.3144,44.3565,96.6172,16.5223,14.2744,36.5029,24.0794,57.7181,28.3519,8.1013,1.655,16.5721,2.4703,25.1912,2.4703s16.8686-.8153,25.2166-2.4703c21.2649-4.2968,41.2201-14.0775,57.7425-28.3275,28.2047-24.3272,44.3575-59.5457,44.3575-96.6416C504.8251,57.1995,447.7243,0,377.5086,0ZM377.5086,43.7393c46.1109,0,83.6505,37.5896,83.6505,83.7985,0,38.6767-27.2899,73.0302-64.9046,81.6503h-.0244c-11.7321,2.7414-25.0186,2.8155-37.4908,0-37.6147-8.6445-64.9056-42.999-64.9056-81.6503,0-46.2089,37.5406-83.7985,83.6749-83.7985Z" style="fill: #404040;"></path>
    <path id="type_CompoundPathItem_-2" data-name="type &amp;lt;CompoundPathItem&amp;gt;" d="M864,56.8784c0-30.4274-24.7709-55.199-55.2235-55.199h-92.2696c-30.4526,0-55.2235,24.7716-55.2235,55.199v36.1324c0,12.9168,4.4705,24.8205,11.9534,34.2305-7.4829,9.41-11.9534,21.2893-11.9534,34.2063v36.1577c0,30.4272,24.7709,55.1981,55.2235,55.1981h92.2696c30.4526,0,55.2235-24.7709,55.2235-55.1981v-36.1577c0-12.917-4.4695-24.7962-11.9534-34.2063,7.4839-9.41,11.9534-21.3137,11.9534-34.2305v-36.1324ZM822.0143,197.6297c0,7.286-5.9274,13.2134-13.2378,13.2134h-92.2696c-7.3103,0-13.2378-5.9275-13.2378-13.2134v-36.1577c0-7.285,5.9274-13.2124,13.2378-13.2124h92.2696c7.3103,0,13.2378,5.9275,13.2378,13.2124v36.1577ZM822.0143,93.0109c0,7.3104-5.9274,13.2377-13.2378,13.2377h-92.2696c-7.3103,0-13.2378-5.9273-13.2378-13.2377v-36.1324c0-7.2859,5.9274-13.2132,13.2378-13.2132h92.2696c7.3103,0,13.2378,5.9274,13.2378,13.2132v36.1324Z" style="fill: #57de6b;"></path>
  </g>
</svg>